<svg width="104" height="22" viewBox="0 0 104 22" fill="none" xmlns="http://www.w3.org/2000/svg">
<path fill-rule="evenodd" clip-rule="evenodd" d="M32.1152 6.53302C32.1152 5.89997 31.6376 5.38679 31.0485 5.38679H29.9818C29.3927 5.38679 28.9152 5.89997 28.9152 6.53302V16.467C28.9152 17.1 29.3927 17.6132 29.9818 17.6132H31.0485C31.6376 17.6132 32.1152 17.1 32.1152 16.467V6.53302ZM24.681 7.83207H25.7477C26.3368 7.83207 26.8144 8.35757 26.8144 9.00581V16.4395C26.8144 17.0877 26.3368 17.6132 25.7477 17.6132H24.681C24.0919 17.6132 23.6144 17.0877 23.6144 16.4395V9.00581C23.6144 8.35757 24.0919 7.83207 24.681 7.83207ZM20.3493 10.4811H19.2826C18.6935 10.4811 18.2159 11.0133 18.2159 11.6698V16.4245C18.2159 17.081 18.6935 17.6132 19.2826 17.6132H20.3493C20.9384 17.6132 21.4159 17.081 21.4159 16.4245V11.6698C21.4159 11.0133 20.9384 10.4811 20.3493 10.4811ZM15.0485 12.9264H13.9818C13.3927 12.9264 12.9152 13.451 12.9152 14.0981V16.4415C12.9152 17.0886 13.3927 17.6132 13.9818 17.6132H15.0485C15.6376 17.6132 16.1152 17.0886 16.1152 16.4415V14.0981C16.1152 13.451 15.6376 12.9264 15.0485 12.9264Z" fill="black"/>
<path fill-rule="evenodd" clip-rule="evenodd" d="M47.6864 7.80213C50.1735 7.80223 52.5655 8.72432 54.368 10.3778C54.5038 10.5054 54.7207 10.5038 54.8544 10.3742L56.1519 9.11072C56.2196 9.04496 56.2573 8.95588 56.2568 8.8632C56.2562 8.77052 56.2174 8.68187 56.1489 8.61688C51.4179 4.24217 43.9542 4.24217 39.2232 8.61688C39.1546 8.68183 39.1158 8.77044 39.1151 8.86313C39.1145 8.95581 39.1522 9.04491 39.2198 9.11072L40.5177 10.3742C40.6513 10.504 40.8684 10.5056 41.004 10.3778C42.8068 8.72421 45.1991 7.80212 47.6864 7.80213ZM47.6831 12.0224C49.0404 12.0223 50.3493 12.5341 51.3554 13.4582C51.4915 13.5893 51.7058 13.5865 51.8385 13.4518L53.1258 12.1325C53.1936 12.0633 53.2312 11.9694 53.2302 11.8718C53.2292 11.7743 53.1897 11.6812 53.1206 11.6134C50.0567 8.72257 45.312 8.72257 42.2482 11.6134C42.179 11.6812 42.1395 11.7743 42.1386 11.8719C42.1377 11.9695 42.1754 12.0634 42.2433 12.1325L43.5302 13.4518C43.6629 13.5865 43.8773 13.5893 44.0133 13.4582C45.0188 12.5347 46.3266 12.023 47.6831 12.0224ZM50.2075 14.816C50.2094 14.9213 50.1723 15.0229 50.105 15.0967L47.9284 17.5514C47.8646 17.6236 47.7776 17.6642 47.6868 17.6642C47.596 17.6642 47.5091 17.6236 47.4452 17.5514L45.2682 15.0967C45.201 15.0228 45.164 14.9212 45.166 14.8159C45.168 14.7105 45.2088 14.6108 45.2788 14.5401C46.6689 13.2262 48.7048 13.2262 50.0949 14.5401C50.1648 14.6108 50.2056 14.7106 50.2075 14.816Z" fill="black"/>
<rect opacity="0.35" x="63.7568" y="5.5" width="24" height="12" rx="3.8" stroke="black"/>
<path opacity="0.4" d="M89.2568 9.78113V13.8566C90.0616 13.5114 90.5849 12.7085 90.5849 11.8189C90.5849 10.9293 90.0616 10.1263 89.2568 9.78113Z" fill="black"/>
<rect x="65.2568" y="7" width="21" height="9" rx="2.5" fill="black"/>
</svg>
