<svg width="104" height="22" viewBox="0 0 104 22" fill="none" xmlns="http://www.w3.org/2000/svg">
<path fill-rule="evenodd" clip-rule="evenodd" d="M32.1152 6.53307C32.1152 5.90002 31.6376 5.38684 31.0485 5.38684H29.9818C29.3927 5.38684 28.9152 5.90002 28.9152 6.53307V16.467C28.9152 17.1001 29.3927 17.6133 29.9818 17.6133H31.0485C31.6376 17.6133 32.1152 17.1001 32.1152 16.467V6.53307ZM24.681 7.83212H25.7477C26.3368 7.83212 26.8144 8.35762 26.8144 9.00586V16.4395C26.8144 17.0878 26.3368 17.6133 25.7477 17.6133H24.681C24.0919 17.6133 23.6144 17.0878 23.6144 16.4395V9.00586C23.6144 8.35762 24.0919 7.83212 24.681 7.83212ZM20.3493 10.4812H19.2826C18.6935 10.4812 18.2159 11.0134 18.2159 11.6698V16.4246C18.2159 17.0811 18.6935 17.6132 19.2826 17.6132H20.3493C20.9384 17.6132 21.4159 17.0811 21.4159 16.4246V11.6698C21.4159 11.0134 20.9384 10.4812 20.3493 10.4812ZM15.0485 12.9265H13.9818C13.3927 12.9265 12.9152 13.4511 12.9152 14.0982V16.4416C12.9152 17.0887 13.3927 17.6133 13.9818 17.6133H15.0485C15.6376 17.6133 16.1152 17.0887 16.1152 16.4416V14.0982C16.1152 13.4511 15.6376 12.9265 15.0485 12.9265Z" fill="black"/>
<path fill-rule="evenodd" clip-rule="evenodd" d="M47.6864 7.8021C50.1735 7.8022 52.5655 8.72428 54.368 10.3778C54.5038 10.5054 54.7207 10.5038 54.8544 10.3742L56.1519 9.11069C56.2196 9.04493 56.2573 8.95585 56.2568 8.86317C56.2562 8.77049 56.2174 8.68184 56.1489 8.61685C51.4179 4.24214 43.9542 4.24214 39.2232 8.61685C39.1546 8.6818 39.1158 8.77041 39.1151 8.8631C39.1145 8.95578 39.1522 9.04488 39.2198 9.11069L40.5177 10.3742C40.6513 10.504 40.8684 10.5056 41.004 10.3778C42.8068 8.72418 45.1991 7.80209 47.6864 7.8021ZM47.6831 12.0224C49.0404 12.0223 50.3493 12.534 51.3554 13.4582C51.4915 13.5893 51.7058 13.5865 51.8385 13.4517L53.1258 12.1324C53.1936 12.0632 53.2312 11.9694 53.2302 11.8718C53.2292 11.7743 53.1897 11.6812 53.1206 11.6134C50.0567 8.72254 45.312 8.72254 42.2482 11.6134C42.179 11.6812 42.1395 11.7743 42.1386 11.8719C42.1377 11.9695 42.1754 12.0633 42.2433 12.1324L43.5302 13.4517C43.6629 13.5865 43.8773 13.5893 44.0133 13.4582C45.0188 12.5346 46.3266 12.0229 47.6831 12.0224ZM50.2075 14.8159C50.2094 14.9213 50.1723 15.0228 50.105 15.0967L47.9284 17.5514C47.8646 17.6235 47.7776 17.6641 47.6868 17.6641C47.596 17.6641 47.5091 17.6235 47.4452 17.5514L45.2682 15.0967C45.201 15.0228 45.164 14.9212 45.166 14.8158C45.168 14.7105 45.2088 14.6107 45.2788 14.5401C46.6689 13.2262 48.7048 13.2262 50.0949 14.5401C50.1648 14.6108 50.2056 14.7106 50.2075 14.8159Z" fill="black"/>
<rect opacity="0.35" x="63.7568" y="5.5" width="24" height="12" rx="3.8" stroke="black"/>
<path opacity="0.4" d="M89.2568 9.78113V13.8566C90.0616 13.5114 90.5849 12.7085 90.5849 11.8189C90.5849 10.9293 90.0616 10.1263 89.2568 9.78113Z" fill="black"/>
<rect x="65.2568" y="7" width="21" height="9" rx="2.5" fill="black"/>
</svg>
