<svg width="91" height="32" viewBox="0 0 91 32" fill="none" xmlns="http://www.w3.org/2000/svg">
<rect x="0.25" y="0.25" width="90.212" height="31.5" rx="15.75" fill="white" stroke="#E9E9E9" stroke-width="0.5"/>
<path d="M68.2944 7C73.4771 7 77.6782 11.0294 77.6782 16C77.6782 20.9706 73.4771 25 68.2944 25C63.1119 24.9999 58.9106 20.9705 58.9106 16C58.9106 11.0295 63.1119 7.00011 68.2944 7ZM68.2944 9C64.2636 9.00011 60.9956 12.1341 60.9956 16C60.9956 19.8659 64.2636 22.9999 68.2944 23C72.3254 23 75.5933 19.866 75.5933 16C75.5933 12.134 72.3254 9 68.2944 9ZM68.2944 12.5C70.3099 12.5 71.9438 14.067 71.9438 16C71.9438 17.933 70.3099 19.5 68.2944 19.5C66.2791 19.4999 64.645 17.9329 64.645 16C64.645 14.0671 66.2791 12.5001 68.2944 12.5Z" fill="black"/>
<rect x="44.8347" y="6" width="0.521333" height="20" fill="#E9E9E9"/>
<path d="M23.9813 12.5C25.9968 12.5 27.6307 14.067 27.6307 16C27.6307 17.933 25.9968 19.5 23.9813 19.5C21.9659 19.5 20.3319 17.933 20.3319 16C20.3319 14.067 21.9659 12.5 23.9813 12.5ZM16.161 14C17.3127 14 18.2469 14.8954 18.2469 16C18.2469 17.1046 17.3127 18 16.161 18C15.0095 17.9998 14.076 17.1045 14.076 16C14.076 14.8955 15.0095 14.0002 16.161 14ZM31.8016 14C32.9532 14.0001 33.8866 14.8955 33.8866 16C33.8866 17.1045 32.9532 17.9999 31.8016 18C30.6499 18 29.7157 17.1046 29.7157 16C29.7157 14.8954 30.6499 14 31.8016 14Z" fill="#333333"/>
</svg>
