<svg width="104" height="22" viewBox="0 0 104 22" fill="none" xmlns="http://www.w3.org/2000/svg">
<path fill-rule="evenodd" clip-rule="evenodd" d="M32.1152 6.53295C32.1152 5.8999 31.6376 5.38672 31.0485 5.38672H29.9818C29.3927 5.38672 28.9152 5.8999 28.9152 6.53295V16.4669C28.9152 17.0999 29.3927 17.6131 29.9818 17.6131H31.0485C31.6376 17.6131 32.1152 17.0999 32.1152 16.4669V6.53295ZM24.681 7.832H25.7477C26.3368 7.832 26.8144 8.3575 26.8144 9.00574V16.4394C26.8144 17.0876 26.3368 17.6131 25.7477 17.6131H24.681C24.0919 17.6131 23.6144 17.0876 23.6144 16.4394V9.00574C23.6144 8.3575 24.0919 7.832 24.681 7.832ZM20.3493 10.481H19.2826C18.6935 10.481 18.2159 11.0132 18.2159 11.6697V16.4244C18.2159 17.0809 18.6935 17.6131 19.2826 17.6131H20.3493C20.9384 17.6131 21.4159 17.0809 21.4159 16.4244V11.6697C21.4159 11.0132 20.9384 10.481 20.3493 10.481ZM15.0485 12.9263H13.9818C13.3927 12.9263 12.9152 13.4509 12.9152 14.098V16.4414C12.9152 17.0885 13.3927 17.6131 13.9818 17.6131H15.0485C15.6376 17.6131 16.1152 17.0885 16.1152 16.4414V14.098C16.1152 13.4509 15.6376 12.9263 15.0485 12.9263Z" fill="black"/>
<path fill-rule="evenodd" clip-rule="evenodd" d="M47.6864 7.80222C50.1735 7.80232 52.5655 8.72441 54.368 10.3779C54.5038 10.5055 54.7207 10.5039 54.8544 10.3743L56.1519 9.11081C56.2196 9.04505 56.2573 8.95597 56.2568 8.86329C56.2562 8.77061 56.2174 8.68197 56.1489 8.61697C51.4179 4.24226 43.9542 4.24226 39.2232 8.61697C39.1546 8.68192 39.1158 8.77054 39.1151 8.86322C39.1145 8.9559 39.1522 9.045 39.2198 9.11081L40.5177 10.3743C40.6513 10.5041 40.8684 10.5057 41.004 10.3779C42.8068 8.7243 45.1991 7.80221 47.6864 7.80222ZM47.6831 12.0225C49.0404 12.0224 50.3493 12.5342 51.3554 13.4583C51.4915 13.5894 51.7058 13.5866 51.8385 13.4519L53.1258 12.1326C53.1936 12.0634 53.2312 11.9695 53.2302 11.8719C53.2292 11.7744 53.1897 11.6813 53.1206 11.6135C50.0567 8.72266 45.312 8.72266 42.2482 11.6135C42.179 11.6813 42.1395 11.7744 42.1386 11.872C42.1377 11.9696 42.1754 12.0635 42.2433 12.1326L43.5302 13.4519C43.6629 13.5866 43.8773 13.5894 44.0133 13.4583C45.0188 12.5348 46.3266 12.0231 47.6831 12.0225ZM50.2075 14.816C50.2094 14.9214 50.1723 15.023 50.105 15.0968L47.9284 17.5515C47.8646 17.6236 47.7776 17.6642 47.6868 17.6642C47.596 17.6642 47.5091 17.6236 47.4452 17.5515L45.2682 15.0968C45.201 15.0229 45.164 14.9213 45.166 14.816C45.168 14.7106 45.2088 14.6108 45.2788 14.5402C46.6689 13.2263 48.7048 13.2263 50.0949 14.5402C50.1648 14.6109 50.2056 14.7107 50.2075 14.816Z" fill="black"/>
<rect opacity="0.35" x="63.7568" y="5.5" width="24" height="12" rx="3.8" stroke="black"/>
<path opacity="0.4" d="M89.2568 9.78125V13.8567C90.0616 13.5116 90.5849 12.7086 90.5849 11.819C90.5849 10.9294 90.0616 10.1264 89.2568 9.78125Z" fill="black"/>
<rect x="65.2568" y="7" width="21" height="9" rx="2.5" fill="black"/>
</svg>
