<svg width="91" height="37" viewBox="0 0 91 37" fill="none" xmlns="http://www.w3.org/2000/svg">
<rect x="0.25" y="0.25" width="90.212" height="35.8192" rx="17.9096" fill="white" stroke="#E9E9E9" stroke-width="0.5"/>
<path d="M68.2944 7.94482C73.4771 7.94482 77.6782 12.5182 77.6782 18.1597C77.6782 23.8011 73.4771 28.3745 68.2944 28.3745C63.1119 28.3744 58.9107 23.801 58.9106 18.1597C58.9106 12.5183 63.1119 7.94495 68.2944 7.94482ZM68.2944 10.2144C64.2636 10.2145 60.9956 13.7719 60.9956 18.1597C60.9956 22.5474 64.2636 26.1039 68.2944 26.104C72.3254 26.104 75.5932 22.5475 75.5933 18.1597C75.5933 13.7719 72.3254 10.2144 68.2944 10.2144ZM68.2944 14.187C70.3099 14.187 71.9438 15.9658 71.9438 18.1597C71.9438 20.3535 70.3099 22.1323 68.2944 22.1323C66.2791 22.1322 64.645 20.3535 64.645 18.1597C64.645 15.9658 66.2791 14.1871 68.2944 14.187Z" fill="black"/>
<rect x="44.8347" y="6.80981" width="0.521333" height="22.6995" fill="#E9E9E9"/>
<path d="M23.9813 14.1873C25.9968 14.1873 27.6307 15.966 27.6307 18.1599C27.6306 20.3537 25.9967 22.1326 23.9813 22.1326C21.966 22.1325 20.332 20.3537 20.3319 18.1599C20.3319 15.966 21.9659 14.1873 23.9813 14.1873ZM16.161 15.8894C17.3127 15.8894 18.2469 16.9063 18.2469 18.1599C18.2468 19.4135 17.3126 20.4294 16.161 20.4294C15.0096 20.4292 14.0762 19.4133 14.076 18.1599C14.076 16.9064 15.0095 15.8896 16.161 15.8894ZM31.8016 15.8894C32.9532 15.8896 33.8866 16.9063 33.8866 18.1599C33.8865 19.4134 32.9531 20.4293 31.8016 20.4294C30.65 20.4294 29.7158 19.4135 29.7157 18.1599C29.7157 16.9063 30.6499 15.8894 31.8016 15.8894Z" fill="#333333"/>
</svg>
