<svg width="104" height="22" viewBox="0 0 104 22" fill="none" xmlns="http://www.w3.org/2000/svg">
<path fill-rule="evenodd" clip-rule="evenodd" d="M32.115 6.53302C32.115 5.89997 31.6375 5.38679 31.0484 5.38679H29.9817C29.3926 5.38679 28.915 5.89997 28.915 6.53302V16.467C28.915 17.1 29.3926 17.6132 29.9817 17.6132H31.0484C31.6375 17.6132 32.115 17.1 32.115 16.467V6.53302ZM24.6809 7.83207H25.7476C26.3367 7.83207 26.8143 8.35757 26.8143 9.00581V16.4395C26.8143 17.0877 26.3367 17.6132 25.7476 17.6132H24.6809C24.0918 17.6132 23.6143 17.0877 23.6143 16.4395V9.00581C23.6143 8.35757 24.0918 7.83207 24.6809 7.83207ZM20.3492 10.4811H19.2825C18.6934 10.4811 18.2158 11.0133 18.2158 11.6698V16.4245C18.2158 17.081 18.6934 17.6132 19.2825 17.6132H20.3492C20.9383 17.6132 21.4158 17.081 21.4158 16.4245V11.6698C21.4158 11.0133 20.9383 10.4811 20.3492 10.4811ZM15.0484 12.9264H13.9817C13.3926 12.9264 12.915 13.451 12.915 14.0981V16.4415C12.915 17.0886 13.3926 17.6132 13.9817 17.6132H15.0484C15.6375 17.6132 16.115 17.0886 16.115 16.4415V14.0981C16.115 13.451 15.6375 12.9264 15.0484 12.9264Z" fill="black"/>
<path fill-rule="evenodd" clip-rule="evenodd" d="M47.6865 7.80213C50.1736 7.80223 52.5657 8.72432 54.3682 10.3778C54.5039 10.5054 54.7209 10.5038 54.8545 10.3742L56.152 9.11072C56.2197 9.04496 56.2575 8.95588 56.2569 8.8632C56.2563 8.77052 56.2175 8.68187 56.149 8.61688C51.418 4.24217 43.9543 4.24217 39.2233 8.61688C39.1548 8.68183 39.1159 8.77044 39.1152 8.86313C39.1146 8.95581 39.1523 9.04491 39.2199 9.11072L40.5178 10.3742C40.6514 10.504 40.8685 10.5056 41.0042 10.3778C42.8069 8.72421 45.1992 7.80212 47.6865 7.80213ZM47.6832 12.0224C49.0405 12.0223 50.3494 12.5341 51.3555 13.4582C51.4916 13.5893 51.7059 13.5865 51.8386 13.4518L53.1259 12.1325C53.1937 12.0633 53.2313 11.9694 53.2303 11.8718C53.2293 11.7743 53.1898 11.6812 53.1207 11.6134C50.0568 8.72257 45.3121 8.72257 42.2483 11.6134C42.1791 11.6812 42.1396 11.7743 42.1387 11.8719C42.1378 11.9695 42.1755 12.0634 42.2435 12.1325L43.5304 13.4518C43.663 13.5865 43.8774 13.5893 44.0135 13.4582C45.0189 12.5347 46.3268 12.023 47.6832 12.0224ZM50.2076 14.816C50.2095 14.9213 50.1725 15.0229 50.1052 15.0967L47.9285 17.5514C47.8647 17.6236 47.7777 17.6642 47.6869 17.6642C47.5962 17.6642 47.5092 17.6236 47.4454 17.5514L45.2683 15.0967C45.2011 15.0228 45.1641 14.9212 45.1661 14.8159C45.1681 14.7105 45.2089 14.6108 45.2789 14.5401C46.669 13.2262 48.7049 13.2262 50.095 14.5401C50.1649 14.6108 50.2057 14.7106 50.2076 14.816Z" fill="black"/>
<rect opacity="0.35" x="63.7568" y="5.5" width="24" height="12" rx="3.8" stroke="black"/>
<path opacity="0.4" d="M89.2568 9.78113V13.8566C90.0616 13.5114 90.5849 12.7085 90.5849 11.8189C90.5849 10.9293 90.0616 10.1263 89.2568 9.78113Z" fill="black"/>
<rect x="65.2568" y="7" width="21" height="9" rx="2.5" fill="black"/>
</svg>
